<?xml version="1.0" standalone="no"?>
<!DOCTYPE svg PUBLIC "-//W3C//DTD SVG 20010904//EN"
 "http://www.w3.org/TR/2001/REC-SVG-20010904/DTD/svg10.dtd">
<svg version="1.0" xmlns="http://www.w3.org/2000/svg"
 width="849.000000pt" height="849.000000pt" viewBox="0 0 849.000000 849.000000"
 preserveAspectRatio="xMidYMid meet">
<metadata>
Created by potrace 1.11, written by Peter Selinger 2001-2013
</metadata>
<g transform="translate(0.000000,849.000000) scale(0.100000,-0.100000)"
fill="#000000" stroke="none">
<path d="M3967 8314 c-1 -1 -43 -5 -94 -8 -50 -4 -100 -8 -110 -10 -10 -2 -40
-7 -68 -10 -70 -10 -252 -45 -300 -57 -22 -6 -47 -12 -55 -14 -8 -2 -40 -11
-70 -20 -470 -146 -813 -330 -1190 -639 -126 -104 -363 -341 -465 -467 -49
-61 -95 -116 -100 -122 -40 -45 -215 -303 -280 -412 -71 -118 -196 -373 -250
-510 -26 -66 -50 -127 -54 -135 -16 -31 -129 -401 -138 -450 -2 -14 -9 -43
-15 -65 -5 -22 -12 -49 -14 -60 -2 -11 -13 -65 -23 -120 -11 -55 -23 -120 -27
-145 -3 -25 -8 -52 -9 -60 -2 -8 -6 -44 -10 -80 -4 -36 -9 -76 -11 -90 -7 -49
-17 -247 -18 -350 l-1 -105 280 -1 280 -2 65 -27 c143 -60 410 -203 385 -206
-5 -1 -338 -2 -740 -3 l-730 -1 1 -95 c0 -90 10 -236 18 -290 3 -14 7 -43 10
-65 3 -22 10 -65 16 -95 6 -30 13 -68 16 -85 11 -64 57 -235 88 -330 117 -350
278 -655 500 -949 55 -72 105 -136 110 -142 6 -6 41 -45 77 -85 108 -119 216
-226 349 -343 331 -291 833 -576 1296 -736 289 -100 644 -182 889 -206 28 -2
57 -7 65 -9 27 -7 253 -22 410 -26 l85 -2 0 399 0 399 105 1 c58 0 107 -3 110
-7 3 -4 5 -291 5 -638 0 -415 3 -631 10 -632 37 -4 325 10 335 16 3 1 30 6 60
9 30 4 69 9 85 12 472 81 855 231 1255 493 63 41 117 78 120 81 3 3 32 25 65
49 287 211 624 568 821 870 20 30 42 60 49 68 8 7 48 75 90 151 43 75 87 153
99 172 29 45 233 505 242 545 3 17 26 94 50 172 24 77 45 152 48 165 3 12 7
32 10 43 8 32 46 197 51 225 3 14 7 36 10 50 11 56 25 138 30 185 4 28 8 61
10 75 3 14 7 56 10 95 4 38 8 85 11 103 2 18 7 105 9 193 5 126 3 159 -7 160
-16 0 -3366 0 -3423 0 l-40 -1 1 -717 c0 -395 -2 -723 -4 -730 -5 -16 -211
-16 -213 0 -1 7 -3 329 -4 717 -1 388 -3 712 -4 720 -1 13 -63 15 -503 15
l-502 0 -17 45 c-47 123 -68 184 -64 188 2 3 247 5 544 4 392 0 541 3 543 12
4 10 2 3901 -1 3917 -1 6 -158 9 -164 3z m-1193 -4033 c31 -58 58 -112 61
-120 4 -15 -23 -16 -271 -16 -239 0 -277 3 -287 16 -46 62 -173 209 -181 210
-6 0 -3 3 6 7 10 4 152 7 317 7 l300 0 55 -104z m1582 -1886 c0 -60 -2 -116
-4 -122 -3 -9 -34 -13 -111 -13 l-106 0 0 125 0 126 110 -3 110 -3 1 -110z
m-11 -264 c6 -1 10 -43 10 -109 l0 -107 -100 1 c-55 1 -105 2 -110 3 -7 1 -11
40 -10 102 0 87 3 103 17 108 14 5 147 6 193 2z m11 -421 c0 -47 -1 -90 -4
-96 -4 -13 -211 -17 -213 -5 -1 3 -2 47 -3 98 l-1 92 110 -2 110 -2 1 -85z"/>
<path d="M4359 7851 c-1 -8 -1 -3442 0 -3458 1 -10 399 -13 1957 -13 l1956 0
-6 143 c-4 78 -8 156 -11 172 -2 17 -6 50 -9 75 -51 413 -199 844 -417 1216
-49 83 -177 277 -212 320 -9 10 -57 70 -107 132 -377 466 -940 871 -1541 1110
-172 68 -449 160 -536 176 -10 2 -48 11 -84 20 -35 8 -75 18 -89 20 -14 3 -50
10 -80 16 -76 15 -143 25 -225 36 -16 2 -46 6 -65 8 -148 22 -529 41 -531 27z"/>
</g>
</svg>
